<svg width="53" height="53" viewBox="0 0 53 53" fill="none" xmlns="http://www.w3.org/2000/svg">
<g filter="url(#filter0_d_0_42)">
<path d="M34.9999 18.01L28.4499 12.77C27.1699 11.75 25.1699 11.74 23.8999 12.76L17.3499 18.01C16.4099 18.76 15.8399 20.26 16.0399 21.44L17.2999 28.98C17.5899 30.67 19.1599 32 20.8699 32H31.4699C33.1599 32 34.7599 30.64 35.0499 28.97L36.3099 21.43C36.4899 20.26 35.9199 18.76 34.9999 18.01ZM26.9199 28C26.9199 28.41 26.5799 28.75 26.1699 28.75C25.7599 28.75 25.4199 28.41 25.4199 28V25C25.4199 24.59 25.7599 24.25 26.1699 24.25C26.5799 24.25 26.9199 24.59 26.9199 25V28Z" fill="#5ED5A8"/>
</g>
<defs>
<filter id="filter0_d_0_42" x="0" y="1" width="52.3438" height="52" filterUnits="userSpaceOnUse" color-interpolation-filters="sRGB">
<feFlood flood-opacity="0" result="BackgroundImageFix"/>
<feColorMatrix in="SourceAlpha" type="matrix" values="0 0 0 0 0 0 0 0 0 0 0 0 0 0 0 0 0 0 127 0" result="hardAlpha"/>
<feOffset dy="5"/>
<feGaussianBlur stdDeviation="8"/>
<feComposite in2="hardAlpha" operator="out"/>
<feColorMatrix type="matrix" values="0 0 0 0 0.368627 0 0 0 0 0.835294 0 0 0 0 0.658824 0 0 0 0.25 0"/>
<feBlend mode="normal" in2="BackgroundImageFix" result="effect1_dropShadow_0_42"/>
<feBlend mode="normal" in="SourceGraphic" in2="effect1_dropShadow_0_42" result="shape"/>
</filter>
</defs>
</svg>
