<svg width="21" height="20" viewBox="0 0 21 20" fill="none" xmlns="http://www.w3.org/2000/svg">
<path opacity="0.4" d="M19.2543 7.1469C18.7642 6.36671 18.2041 5.66654 17.6239 5.03639L13.853 8.80731C13.973 9.1774 14.043 9.57749 14.043 9.9976C14.043 12.2381 12.2326 14.0386 10.0021 14.0386C9.58195 14.0386 9.18185 13.9686 8.81176 13.8485L5.35092 17.3094C6.81127 18.1296 8.39166 18.5597 10.0021 18.5597C11.7825 18.5597 13.5129 18.0396 15.0933 17.0693C16.6737 16.0891 18.094 14.6587 19.2543 12.8383C20.2546 11.2779 20.2546 8.71728 19.2543 7.1469Z" fill="white"/>
<path d="M12.0236 7.97671L7.98257 12.0177C7.47245 11.4976 7.14237 10.7774 7.14237 9.99721C7.14237 8.42682 8.42268 7.13651 10.0031 7.13651C10.7833 7.13651 11.5034 7.46659 12.0236 7.97671Z" fill="white"/>
<path opacity="0.4" d="M16.254 3.74572L12.8631 7.13655C12.133 6.39637 11.1227 5.95626 10.0024 5.95626C7.7619 5.95626 5.96146 7.7667 5.96146 9.99725C5.96146 11.1175 6.41157 12.1278 7.14174 12.8579L3.76092 16.2488H3.75092C2.64064 15.3486 1.6204 14.1983 0.750183 12.8379C-0.250061 11.2676 -0.250061 8.71693 0.750183 7.14655C1.91047 5.3261 3.33081 3.89576 4.9112 2.91552C6.49158 1.95528 8.22201 1.42515 10.0024 1.42515C12.233 1.42515 14.3935 2.24535 16.254 3.74572Z" fill="white"/>
<path d="M12.8632 9.99764C12.8632 11.568 11.5829 12.8583 10.0025 12.8583C9.94251 12.8583 9.89249 12.8583 9.83248 12.8383L12.8432 9.82759C12.8632 9.88761 12.8632 9.93762 12.8632 9.99764Z" fill="white"/>
<path d="M19.7757 0.225055C19.4756 -0.0750183 18.9855 -0.0750183 18.6854 0.225055L0.230916 18.6896C-0.0691575 18.9896 -0.0691575 19.4798 0.230916 19.7798C0.380952 19.9199 0.570999 19.9999 0.771048 19.9999C0.971096 19.9999 1.16114 19.9199 1.31118 19.7698L19.7757 1.30532C20.0858 1.00525 20.0858 0.525128 19.7757 0.225055Z" fill="white"/>
</svg>
