<svg width="36" height="36" viewBox="0 0 36 36" fill="none" xmlns="http://www.w3.org/2000/svg">
<path d="M18 36C27.9411 36 36 27.9411 36 18C36 8.05887 27.9411 0 18 0C8.05887 0 0 8.05887 0 18C0 27.9411 8.05887 36 18 36Z" fill="#203234"/>
<g clip-path="url(#clip0_858_5545)">
<path d="M25.8745 12.0691H22.929L21.2722 10.2282H15.7495V12.0691H20.4438L22.1926 13.91H25.8745V24.9554H11.1472V16.6713H9.30629V24.9554C9.30629 25.9679 10.1347 26.7963 11.1472 26.7963H25.8745C26.887 26.7963 27.7154 25.9679 27.7154 24.9554V13.91C27.7154 12.8975 26.887 12.0691 25.8745 12.0691ZM13.9086 19.4327C13.9086 23.5287 18.8698 25.5905 21.7692 22.6911C24.6687 19.7917 22.6069 14.8304 18.5108 14.8304C15.9704 14.8304 13.9086 16.8923 13.9086 19.4327ZM18.5108 16.6713C20.0204 16.7174 21.2262 17.9232 21.2722 19.4327C21.2262 20.9423 20.0204 22.148 18.5108 22.1941C17.0013 22.148 15.7955 20.9423 15.7495 19.4327C15.7955 17.9232 17.0013 16.7174 18.5108 16.6713ZM11.1472 12.0691H13.9086V10.2282H11.1472V7.4668H9.30629V10.2282H6.54492V12.0691H9.30629V14.8304H11.1472" fill="#FCFCFE"/>
</g>
<defs>
<clipPath id="clip0_858_5545">
<rect width="22.0909" height="22.0909" fill="white" transform="translate(6.54492 6.5459)"/>
</clipPath>
</defs>
</svg>
