<svg width="58" height="62" viewBox="0 0 58 62" fill="none" xmlns="http://www.w3.org/2000/svg">
<path d="M18.0047 45.259C16.1836 43.8617 12.6411 41.0051 12.8026 35.6819C12.9099 33.614 13.4179 31.5866 14.2982 29.7124L14.4482 29.3679C17.2432 23.3591 27.5265 14.3115 36.1201 7.96008C36.9268 7.36129 37.7168 6.7896 38.4902 6.24501C38.4902 6.24501 38.5441 6.20647 38.5708 6.18482C42.5721 3.35997 45.9508 1.31161 47.6448 0.722969C51.0494 -0.479822 52.2617 1.0172 52.688 2.30463C52.9091 2.98741 52.9536 3.71506 52.8176 4.41972C52.1111 8.31258 51.0553 12.1339 49.663 15.8372C49.6501 15.8802 49.6331 15.9219 49.6123 15.9617C44.8523 28.6112 37.2341 38.0339 33.6854 43.1498C33.5833 43.2887 33.4864 43.4318 33.3982 43.5646L33.3473 43.6364C28.896 50.0195 20.4348 47.1267 18.0047 45.259Z" fill="url(#paint0_linear_0_181)"/>
<path opacity="0.15" d="M33.3348 43.6369L34.0986 39.9488C40.5874 32.8871 45.8274 24.7727 49.5941 15.9532C44.854 28.6104 37.2358 38.0331 33.687 43.149C33.585 43.2878 33.4881 43.431 33.3998 43.5637L33.3348 43.6369Z" fill="#43675E"/>
<path opacity="0.15" d="M12.7846 35.6885C12.8919 33.6206 13.3999 31.5932 14.2802 29.719L14.4302 29.3745C17.2252 23.3657 27.5085 14.3181 36.1021 7.96669C35.499 8.54016 16.2395 27.0888 13.8591 33.7441C13.6157 34.4494 13.2522 35.1072 12.7846 35.6885Z" fill="#43675E"/>
<path d="M18.0054 45.2587C15.5957 43.4035 10.1606 38.9981 14.2804 29.7186C17.6347 26.8916 23.4326 27.0569 28.2021 30.3839C32.9716 33.7109 35.1147 39.0355 33.6719 43.1508C33.5698 43.2897 33.4729 43.4328 33.3847 43.5656C28.9611 50.042 20.4459 47.135 18.0054 45.2587Z" fill="#354E4C"/>
<path d="M18.4191 44.4196C22.9816 47.6 28.6733 47.3188 31.132 43.7916C33.5907 40.2644 31.8853 34.8269 27.3229 31.6465C22.7604 28.4662 17.0687 28.7474 14.61 32.2746C12.1513 35.8018 13.8567 41.2393 18.4191 44.4196Z" fill="#1B232A"/>
<path d="M8.83215 25.1134C9.05264 24.8055 17.9583 12.6377 26.5363 18.7966L21.0592 24.9685L19.8751 26.3002C19.8751 26.3002 15.6679 22.7341 8.83215 25.1134Z" fill="#6EC5A2"/>
<path d="M38.3495 48.331C39.1564 41.1368 34.747 37.8195 34.747 37.8195L35.7427 36.419L40.576 29.6602C48.4892 36.657 38.5964 48.0493 38.3491 48.3262L38.3495 48.331Z" fill="#6EC5A2"/>
<path d="M34.1774 18.3259C34.429 21.0331 36.8276 23.0237 39.5348 22.7721C42.242 22.5204 44.2325 20.1218 43.9809 17.4146C43.7292 14.7074 41.3306 12.7169 38.6235 12.9685C35.9163 13.2202 33.9257 15.6188 34.1774 18.3259Z" fill="white"/>
<path d="M35.6151 18.1923C35.7929 20.1047 37.4872 21.5108 39.3996 21.333C41.3119 21.1553 42.7181 19.4609 42.5403 17.5486C42.3625 15.6362 40.6682 14.2301 38.7558 14.4079C36.8435 14.5856 35.4373 16.28 35.6151 18.1923Z" fill="#1B232A"/>
<path d="M49.5941 15.9532C47.4759 8.62846 42.3696 6.62628 38.4862 6.23511C38.4862 6.23511 38.5402 6.19657 38.5669 6.17492C42.5681 3.35007 45.9469 1.30171 47.6408 0.713069C51.0455 -0.489722 52.2578 1.0073 52.6841 2.29473C52.9051 2.97752 52.9497 3.70516 52.8136 4.40982C52.1071 8.30268 51.0513 12.124 49.659 15.8273L49.5941 15.9532Z" fill="#6EC5A2"/>
<path d="M26.0018 47.232C27.1332 45.5402 27.5684 43.4773 27.2169 41.4726C26.8654 39.468 25.7542 37.6762 24.1146 36.4704C22.4751 35.2645 20.4336 34.7375 18.4153 34.9991C16.397 35.2608 14.5573 36.2908 13.2794 37.8748C13.2794 37.8748 7.09339 44.563 5.30801 61.9998C5.30801 61.9998 12.9917 60.5478 24.6154 48.7071C25.138 48.276 25.6039 47.7804 26.0018 47.232Z" fill="url(#paint1_linear_0_181)"/>
<path d="M24.0726 44.3451C24.4359 43.8543 24.6989 43.2967 24.8468 42.7042C24.9946 42.1117 25.0243 41.4958 24.9341 40.8919C24.8439 40.2879 24.6356 39.7076 24.3212 39.1841C24.0068 38.6606 23.5923 38.2042 23.1014 37.8408C22.6106 37.4775 22.053 37.2144 21.4605 37.0666C20.868 36.9188 20.2521 36.8891 19.6482 36.9793C19.0442 37.0695 18.4639 37.2778 17.9404 37.5922C17.4169 37.9066 16.9605 38.3211 16.5971 38.812C16.5971 38.812 12.9622 42.743 11.9163 52.9824C11.9163 52.9824 16.4268 52.1319 23.2537 45.1734C23.5601 44.9326 23.8352 44.6543 24.0726 44.3451Z" fill="white"/>
<path d="M8.83084 25.1134C9.02018 24.9856 14.7202 21.2124 21.0579 24.9685L19.8738 26.3002C19.8738 26.3002 15.6665 22.7341 8.83084 25.1134Z" fill="url(#paint2_linear_0_181)"/>
<path d="M38.3493 48.3303C39.1561 41.1361 34.7468 37.8187 34.7468 37.8187L35.7425 36.4183C35.7425 36.4183 40.4101 41.6376 38.3536 48.3251L38.3493 48.3303Z" fill="url(#paint3_linear_0_181)"/>
<defs>
<linearGradient id="paint0_linear_0_181" x1="-5257.05" y1="15103.2" x2="-8795.76" y2="19091.2" gradientUnits="userSpaceOnUse">
<stop stop-color="white"/>
<stop offset="0.38" stop-color="#99D0B5"/>
<stop offset="0.99" stop-color="#5F9D84"/>
</linearGradient>
<linearGradient id="paint1_linear_0_181" x1="24.2782" y1="36.0092" x2="7.90898" y2="58.9027" gradientUnits="userSpaceOnUse">
<stop stop-color="#EE7671"/>
<stop offset="1" stop-color="#1B232A" stop-opacity="0"/>
</linearGradient>
<linearGradient id="paint2_linear_0_181" x1="-2016.48" y1="1266.94" x2="-2125.83" y2="1834.6" gradientUnits="userSpaceOnUse">
<stop stop-color="#45695E"/>
<stop offset="0.87" stop-color="#1B232A"/>
</linearGradient>
<linearGradient id="paint3_linear_0_181" x1="-46.185" y1="4239.94" x2="-581.269" y2="4446.85" gradientUnits="userSpaceOnUse">
<stop stop-color="#45695E"/>
<stop offset="0.87" stop-color="#1B232A"/>
</linearGradient>
</defs>
</svg>
