<svg width="52" height="52" viewBox="0 0 52 52" fill="none" xmlns="http://www.w3.org/2000/svg">
<g filter="url(#filter0_d_0_18)">
<path d="M25.7019 11.2052L23.2916 16.8159H20.8813C20.4813 16.8159 20.0912 16.8459 19.7112 16.9259L20.7113 14.5256L20.7513 14.4356L20.8113 14.2756C20.8413 14.2056 20.8613 14.1456 20.8913 14.0956C22.0515 11.4053 23.3516 10.5652 25.7019 11.2052Z" fill="#777777"/>
<path d="M32.4926 17.0856L32.4726 17.0756C31.8725 16.9056 31.2624 16.8156 30.6424 16.8156H24.3817L26.6319 11.585L26.6619 11.515C26.8019 11.565 26.9519 11.635 27.102 11.685L29.3122 12.6151C30.5423 13.1252 31.4024 13.6552 31.9325 14.2953C32.0225 14.4153 32.1025 14.5253 32.1825 14.6553C32.2725 14.7953 32.3426 14.9354 32.3826 15.0854C32.4226 15.1754 32.4526 15.2554 32.4726 15.3454C32.6226 15.8555 32.6326 16.4355 32.4926 17.0856Z" fill="#777777"/>
<path d="M26.2823 26.6572H26.5323C26.8323 26.6572 27.0823 26.3872 27.0823 26.0572C27.0823 25.6371 26.9623 25.5771 26.7023 25.4771L26.2823 25.3271V26.6572Z" fill="#5ED5A8"/>
<path d="M32.0536 18.5165C31.6036 18.3865 31.1335 18.3165 30.6435 18.3165H20.8824C20.2023 18.3165 19.5622 18.4465 18.9621 18.7066C17.2219 19.4566 16.0018 21.1868 16.0018 23.1971V25.1473C16.0018 25.3873 16.0218 25.6173 16.0518 25.8574C16.2718 29.0377 17.972 30.7379 21.1524 30.9479C21.3824 30.9779 21.6124 30.9979 21.8625 30.9979H29.6633C33.3638 30.9979 35.314 29.2377 35.504 25.7374C35.514 25.5473 35.524 25.3473 35.524 25.1473V23.1971C35.524 20.9868 34.0538 19.1266 32.0536 18.5165ZM27.043 24.4972C27.5031 24.6572 28.1232 24.9973 28.1232 26.0574C28.1232 26.9675 27.4131 27.6976 26.533 27.6976H26.283V27.9176C26.283 28.2076 26.0529 28.4377 25.7629 28.4377C25.4729 28.4377 25.2428 28.2076 25.2428 27.9176V27.6976H25.1528C24.1927 27.6976 23.4026 26.8875 23.4026 25.8874C23.4026 25.5973 23.6327 25.3673 23.9227 25.3673C24.2127 25.3673 24.4428 25.5973 24.4428 25.8874C24.4428 26.3074 24.7628 26.6575 25.1528 26.6575H25.2428V24.9673L24.4828 24.6972C24.0227 24.5372 23.4026 24.1972 23.4026 23.1371C23.4026 22.227 24.1127 21.4969 24.9928 21.4969H25.2428V21.2769C25.2428 20.9868 25.4729 20.7568 25.7629 20.7568C26.0529 20.7568 26.283 20.9868 26.283 21.2769V21.4969H26.373C27.3331 21.4969 28.1232 22.307 28.1232 23.3071C28.1232 23.5971 27.8931 23.8271 27.6031 23.8271C27.3131 23.8271 27.0831 23.5971 27.0831 23.3071C27.0831 22.887 26.763 22.537 26.373 22.537H26.283V24.2272L27.043 24.4972Z" fill="#5ED5A8"/>
<path d="M24.4422 23.1368C24.4422 23.5568 24.5622 23.6168 24.8223 23.7169L25.2423 23.8669V22.5367H24.9923C24.6822 22.5367 24.4422 22.8067 24.4422 23.1368Z" fill="#5ED5A8"/>
</g>
<defs>
<filter id="filter0_d_0_18" x="0" y="0" width="51.5253" height="52" filterUnits="userSpaceOnUse" color-interpolation-filters="sRGB">
<feFlood flood-opacity="0" result="BackgroundImageFix"/>
<feColorMatrix in="SourceAlpha" type="matrix" values="0 0 0 0 0 0 0 0 0 0 0 0 0 0 0 0 0 0 127 0" result="hardAlpha"/>
<feOffset dy="5"/>
<feGaussianBlur stdDeviation="8"/>
<feComposite in2="hardAlpha" operator="out"/>
<feColorMatrix type="matrix" values="0 0 0 0 0.368627 0 0 0 0 0.835294 0 0 0 0 0.658824 0 0 0 0.25 0"/>
<feBlend mode="normal" in2="BackgroundImageFix" result="effect1_dropShadow_0_18"/>
<feBlend mode="normal" in="SourceGraphic" in2="effect1_dropShadow_0_18" result="shape"/>
</filter>
</defs>
</svg>
