<svg width="22" height="22" viewBox="0 0 22 22" fill="none" xmlns="http://www.w3.org/2000/svg">
<path d="M21.2326 8.69767C20.813 8.69767 20.4651 8.34977 20.4651 7.93023V5.88372C20.4651 3.24372 18.7563 1.53488 16.1163 1.53488H5.88372C3.24372 1.53488 1.53488 3.24372 1.53488 5.88372V7.93023C1.53488 8.34977 1.18698 8.69767 0.767442 8.69767C0.347907 8.69767 0 8.34977 0 7.93023V5.88372C0 2.36372 2.36372 0 5.88372 0H16.1163C19.6363 0 22 2.36372 22 5.88372V7.93023C22 8.34977 21.6521 8.69767 21.2326 8.69767Z" fill="#5ED5A8"/>
<path d="M16.1163 22H5.88372C2.36372 22 0 19.6363 0 16.1163V14.0698C0 13.6502 0.347907 13.3023 0.767442 13.3023C1.18698 13.3023 1.53488 13.6502 1.53488 14.0698V16.1163C1.53488 18.7563 3.24372 20.4651 5.88372 20.4651H16.1163C18.7563 20.4651 20.4651 18.7563 20.4651 16.1163V14.0698C20.4651 13.6502 20.813 13.3023 21.2326 13.3023C21.6521 13.3023 22 13.6502 22 14.0698V16.1163C22 19.6363 19.6363 22 16.1163 22Z" fill="#5ED5A8"/>
<path d="M21.2326 11.7674H0.767442C0.347907 11.7674 0 11.4195 0 11C0 10.5805 0.347907 10.2326 0.767442 10.2326H21.2326C21.6521 10.2326 22 10.5805 22 11C22 11.4195 21.6521 11.7674 21.2326 11.7674Z" fill="#5ED5A8"/>
<path opacity="0.1" d="M15.6047 7.93023H6.39535C6.10884 7.93023 5.88372 7.70512 5.88372 7.4186V5.37209C5.88372 4.53302 6.5693 3.83721 7.4186 3.83721H14.5814C15.4307 3.83721 16.1163 4.53302 16.1163 5.37209V7.4186C16.1163 7.70512 15.8912 7.93023 15.6047 7.93023Z" fill="#5ED5A8"/>
<path opacity="0.1" d="M15.6047 14.0698H6.39535C6.10884 14.0698 5.88372 14.2949 5.88372 14.5814V16.6279C5.88372 17.467 6.5693 18.1628 7.4186 18.1628H14.5814C15.4307 18.1628 16.1163 17.467 16.1163 16.6279V14.5814C16.1163 14.2949 15.8912 14.0698 15.6047 14.0698Z" fill="#5ED5A8"/>
</svg>
