<svg width="51" height="53" viewBox="0 0 51 53" fill="none" xmlns="http://www.w3.org/2000/svg">
<g filter="url(#filter0_d_858_6696)">
<path opacity="0.4" d="M32.0687 11.1003C31.5642 11.1003 31.1605 11.504 31.1605 12.0085V16.7009C31.1605 17.2055 31.5642 17.6092 32.0687 17.6092C32.5733 17.6092 32.977 17.2055 32.977 16.7009V12.0085C32.977 11.504 32.5733 11.1003 32.0687 11.1003Z" fill="#747E87"/>
<path d="M25.4996 25.1778C24.995 25.1778 24.5914 25.5814 24.5914 26.086V30.7784C24.5914 31.2829 24.995 31.6866 25.4996 31.6866C26.0042 31.6866 26.4078 31.2829 26.4078 30.7784V26.086C26.4078 25.5915 26.0042 25.1778 25.4996 25.1778Z" fill="#5ED5A8"/>
<path opacity="0.4" d="M18.9305 11.1003C18.4259 11.1003 18.0223 11.504 18.0223 12.0085V16.7009C18.0223 17.2055 18.4259 17.6092 18.9305 17.6092C19.435 17.6092 19.8387 17.2055 19.8387 16.7009V12.0085C19.8387 11.504 19.4249 11.1003 18.9305 11.1003Z" fill="#747E87"/>
<path opacity="0.4" d="M20.8081 19.5468H17.0541C16.5496 19.5468 16.1459 19.9504 16.1459 20.455C16.1459 20.9595 16.5496 21.3632 17.0541 21.3632H18.0229V30.7783C18.0229 31.2828 18.4265 31.6865 18.9311 31.6865C19.4357 31.6865 19.8393 31.2828 19.8393 30.7783V21.3632H20.8081C21.3126 21.3632 21.7163 20.9595 21.7163 20.455C21.7163 19.9504 21.3025 19.5468 20.8081 19.5468Z" fill="#747E87"/>
<path opacity="0.4" d="M33.9463 19.5468H30.1924C29.6878 19.5468 29.2842 19.9504 29.2842 20.455C29.2842 20.9595 29.6878 21.3632 30.1924 21.3632H31.1612V30.7783C31.1612 31.2828 31.5648 31.6865 32.0694 31.6865C32.5739 31.6865 32.9776 31.2828 32.9776 30.7783V21.3632H33.9463C34.4509 21.3632 34.8545 20.9595 34.8545 20.455C34.8545 19.9504 34.4509 19.5468 33.9463 19.5468Z" fill="#747E87"/>
<path d="M27.3772 21.4236H26.4084V12.0085C26.4084 11.504 26.0048 11.1003 25.5002 11.1003C24.9957 11.1003 24.592 11.504 24.592 12.0085V21.4236H23.6233C23.1187 21.4236 22.7151 21.8273 22.7151 22.3318C22.7151 22.8364 23.1187 23.24 23.6233 23.24H27.3772C27.8818 23.24 28.2854 22.8364 28.2854 22.3318C28.2854 21.8273 27.8818 21.4236 27.3772 21.4236Z" fill="#5ED5A8"/>
</g>
<defs>
<filter id="filter0_d_858_6696" x="0" y="0" width="51" height="52.8783" filterUnits="userSpaceOnUse" color-interpolation-filters="sRGB">
<feFlood flood-opacity="0" result="BackgroundImageFix"/>
<feColorMatrix in="SourceAlpha" type="matrix" values="0 0 0 0 0 0 0 0 0 0 0 0 0 0 0 0 0 0 127 0" result="hardAlpha"/>
<feOffset dy="5"/>
<feGaussianBlur stdDeviation="8"/>
<feComposite in2="hardAlpha" operator="out"/>
<feColorMatrix type="matrix" values="0 0 0 0 0.368627 0 0 0 0 0.835294 0 0 0 0 0.658824 0 0 0 0.25 0"/>
<feBlend mode="normal" in2="BackgroundImageFix" result="effect1_dropShadow_858_6696"/>
<feBlend mode="normal" in="SourceGraphic" in2="effect1_dropShadow_858_6696" result="shape"/>
</filter>
</defs>
</svg>
