<svg width="20" height="20" viewBox="0 0 20 20" fill="none" xmlns="http://www.w3.org/2000/svg">
<path d="M10.0175 19.7983C7.34462 19.7983 4.68206 19.3735 2.14381 18.524C1.20104 18.2132 0.486184 17.5398 0.175378 16.6902C-0.135427 15.8407 -0.0318254 14.8669 0.475823 14.0173L1.79157 11.821C2.08165 11.334 2.34066 10.4223 2.34066 9.85253V7.67689C2.34066 3.43958 5.78024 0 10.0175 0C14.2549 0 17.6944 3.43958 17.6944 7.67689V9.85253C17.6944 10.412 17.9534 11.334 18.2435 11.821L19.5593 14.0173C20.0462 14.8254 20.1291 15.7889 19.8079 16.6695C19.4867 17.5501 18.7823 18.2236 17.8913 18.524C15.353 19.3839 12.6905 19.7983 10.0175 19.7983ZM10.0175 1.56439C6.64013 1.56439 3.89468 4.30983 3.89468 7.68725V9.86289C3.89468 10.7021 3.56316 11.9142 3.12803 12.6291L1.81229 14.8358C1.54292 15.2813 1.48076 15.7578 1.63616 16.1722C1.79157 16.5866 2.14381 16.8974 2.6411 17.0632C7.40678 18.6483 12.649 18.6483 17.4147 17.0632C17.8602 16.9182 18.2021 16.5866 18.3575 16.1515C18.5233 15.7164 18.4715 15.2398 18.2332 14.8358L16.9174 12.6394C16.4823 11.9246 16.1508 10.7124 16.1508 9.87325V7.69761C16.1404 4.30983 13.395 1.56439 10.0175 1.56439Z" fill="#5ED5A8"/>
<path opacity="0.1" d="M14.14 8.03926C14.14 6.94018 13.7034 5.88612 12.9263 5.10895C12.1491 4.33179 11.095 3.89518 9.99595 3.89518C8.89688 3.89518 7.84282 4.33179 7.06565 5.10895C6.28849 5.88612 5.85188 6.94018 5.85188 8.03925L9.99595 8.03926H14.14Z" fill="#5ED5A8"/>
<path d="M9.73695 19.1764C8.71129 19.1764 7.71671 18.762 6.9915 18.0368C6.26629 17.3116 5.85188 16.317 5.85188 15.2914H7.40591C7.40591 15.9026 7.65455 16.5035 8.08968 16.9386C8.52481 17.3738 9.1257 17.6224 9.73695 17.6224C11.0216 17.6224 12.068 16.576 12.068 15.2914H13.622C13.622 17.4359 11.8815 19.1764 9.73695 19.1764Z" fill="#5ED5A8"/>
</svg>
