<svg width="22" height="22" viewBox="0 0 22 22" fill="none" xmlns="http://www.w3.org/2000/svg">
<path d="M9.9582 19.9164C4.46332 19.9164 0 15.4531 0 9.9582C0 4.46332 4.46332 0 9.9582 0C15.4531 0 19.9164 4.46332 19.9164 9.9582C19.9164 15.4531 15.4531 19.9164 9.9582 19.9164ZM9.9582 1.53203C5.31104 1.53203 1.53203 5.31104 1.53203 9.9582C1.53203 14.6054 5.31104 18.3844 9.9582 18.3844C14.6054 18.3844 18.3844 14.6054 18.3844 9.9582C18.3844 5.31104 14.6054 1.53203 9.9582 1.53203Z" fill="#5ED5A8"/>
<path d="M19.3129 22C19.2312 22 19.1495 21.9897 19.078 21.9795C18.5979 21.9183 17.7298 21.5914 17.2395 20.1309C16.9842 19.3649 17.0761 18.5989 17.4949 18.0167C17.9136 17.4345 18.6184 17.1077 19.4252 17.1077C20.467 17.1077 21.2841 17.506 21.6518 18.2107C22.0195 18.9155 21.9173 19.8143 21.3352 20.6824C20.61 21.7753 19.8236 22 19.3129 22ZM18.7001 19.6508C18.8737 20.182 19.1188 20.4475 19.2823 20.4679C19.4457 20.4884 19.7521 20.2943 20.0687 19.8347C20.3649 19.3955 20.3853 19.0789 20.3138 18.9359C20.2423 18.7929 19.9563 18.6397 19.4252 18.6397C19.1086 18.6397 18.8737 18.7418 18.7409 18.9155C18.6184 19.0891 18.5979 19.3547 18.7001 19.6508Z" fill="#5ED5A8"/>
<path opacity="0.1" d="M16.1495 6.38313C15.6012 5.43341 14.8417 4.62256 13.9299 4.0133C13.0181 3.40404 11.9783 3.0127 10.8911 2.86956C9.8038 2.72642 8.69819 2.83531 7.65975 3.18782C6.6213 3.54032 5.67787 4.12698 4.90243 4.90243C4.12698 5.67787 3.54032 6.6213 3.18782 7.65975C2.83531 8.69819 2.72642 9.8038 2.86956 10.8911C3.0127 11.9783 3.40404 13.0181 4.0133 13.9299C4.62256 14.8417 5.43341 15.6012 6.38313 16.1495L9.95787 9.95787L16.1495 6.38313Z" fill="#5ED5A8"/>
</svg>
