<svg width="97" height="136" viewBox="0 0 97 136" fill="none" xmlns="http://www.w3.org/2000/svg">
<path d="M97.0003 130.096C97.0003 130.925 95.5081 131.715 92.8264 132.426C88.7882 133.496 82.0631 134.388 73.6771 134.995C71.8406 135.127 69.9224 135.245 67.938 135.343C66.6813 135.408 65.3966 135.466 64.0842 135.517C59.2008 135.713 53.966 135.819 48.5226 135.819H48.4983C45.0879 135.819 41.7592 135.778 38.5471 135.699C34.5976 135.602 30.8237 135.447 27.2916 135.244C25.8273 135.16 24.4058 135.067 23.0273 134.965C22.2563 134.91 21.5027 134.852 20.7665 134.792C16.4569 134.444 12.6587 134 9.53008 133.503C8.73009 133.374 7.97647 133.243 7.26923 133.108C6.11621 132.889 5.08491 132.659 4.18753 132.421C1.50061 131.71 0.0136719 130.92 0.0136719 130.091C0.0136719 127.639 13.057 125.546 31.3855 124.727L33.4254 124.642C38.1749 124.468 43.2462 124.36 48.5139 124.36C49.3452 124.36 50.1707 124.36 50.9904 124.36C52.7678 124.371 54.5179 124.392 56.2408 124.425C61.7712 124.531 66.9885 124.745 71.7276 125.053C72.3919 125.094 73.0464 125.138 73.691 125.185C87.6613 126.202 97.0003 128.019 97.0003 130.096Z" fill="#CEEAE9"/>
<path d="M92.8212 132.427C88.7882 133.496 82.0631 134.388 73.6771 134.995C71.8406 135.127 69.9223 135.246 67.938 135.343C66.6812 135.408 65.3966 135.466 64.0841 135.517C59.2007 135.714 53.966 135.82 48.5226 135.82H48.4983C45.0879 135.82 41.7592 135.778 38.5471 135.7C34.5976 135.602 30.8237 135.447 27.2916 135.244C25.8272 135.161 24.4058 135.068 23.0273 134.966C22.2563 134.91 21.5026 134.852 20.7664 134.792C16.4569 134.444 12.6587 134.001 9.53004 133.503C8.73005 133.374 7.97644 133.243 7.2692 133.108C6.11617 132.889 5.08488 132.66 4.1875 132.421C9.43961 131.03 19.2499 129.931 31.3802 129.388L33.4202 129.303C38.1697 129.129 43.2409 129.021 48.5087 129.021C49.34 129.021 50.1655 129.021 50.9852 129.021C52.7626 129.032 54.5127 129.053 56.2355 129.086C61.7659 129.192 66.9832 129.406 71.7223 129.714C72.3867 129.755 73.0411 129.799 73.6858 129.846C82.0631 130.461 88.7882 131.357 92.8212 132.427Z" fill="#364E4C"/>
<path d="M0 5.72167C0 4.89211 1.49215 4.10256 4.17386 3.39126C8.21207 2.32171 14.9337 1.42607 23.3232 0.824337C25.1597 0.692165 27.0779 0.573906 29.0622 0.476516C30.319 0.412748 31.6037 0.354778 32.9161 0.302605C37.7995 0.106086 43.0342 0 48.4777 0H48.4985C51.9089 0 55.2376 0.0417387 58.4497 0.119999C62.3992 0.217389 66.1731 0.372169 69.7052 0.575645C71.1695 0.659122 72.591 0.751874 73.9695 0.853902C74.7394 0.909553 75.493 0.967524 76.2304 1.02781C80.5399 1.37563 84.3381 1.81911 87.4667 2.31649C88.2667 2.44519 89.0203 2.57678 89.7276 2.71127C90.8806 2.9304 91.9119 3.15996 92.8093 3.39822C95.4962 4.10951 96.9831 4.89907 96.9831 5.72862C96.9831 8.18077 83.9398 10.2729 65.6114 11.092L63.5714 11.1772C58.8219 11.3599 53.7506 11.459 48.4829 11.459C47.6516 11.459 46.8261 11.459 46.0064 11.459C44.229 11.4486 42.4789 11.4271 40.756 11.3946C35.2257 11.2886 30.0083 11.0746 25.2779 10.7668C24.6136 10.7251 23.9591 10.681 23.3145 10.6346C9.33901 9.61553 0 7.79816 0 5.72167Z" fill="#CEEAE9"/>
<path d="M4.17969 3.39126C8.21268 2.32171 14.9343 1.42607 23.3238 0.824337C25.1603 0.692165 27.0785 0.573906 29.0629 0.476516C30.3197 0.412748 31.6043 0.354778 32.9167 0.302605C37.8001 0.106086 43.0349 0 48.4783 0H48.4991C51.9095 0 55.2382 0.0417387 58.4503 0.119999C62.3998 0.217389 66.1737 0.372169 69.7058 0.575645C71.1702 0.659122 72.5916 0.751874 73.9701 0.853902C74.74 0.909553 75.4936 0.967524 76.231 1.02781C80.5405 1.37563 84.3387 1.81911 87.4673 2.31649C88.2673 2.44519 89.021 2.57678 89.7282 2.71127C90.8812 2.9304 91.9125 3.15996 92.8099 3.39822C87.5578 4.78951 77.7475 5.88862 65.6172 6.43122L63.5772 6.51644C58.8277 6.69035 53.7565 6.79818 48.4887 6.79818C47.6574 6.79818 46.8319 6.79818 46.0122 6.79818C44.2348 6.78774 42.4847 6.76629 40.7618 6.73383C35.2315 6.62774 30.0141 6.41383 25.2838 6.10601C24.6194 6.06427 23.9649 6.02021 23.3203 5.97384C14.9343 5.35645 8.21268 4.46081 4.17969 3.39126Z" fill="#364E4C"/>
<path d="M14.9028 20.2158H12.6367V25.5045H14.9028V20.2158Z" fill="url(#paint0_linear_858_6462)"/>
<path d="M69.6723 36.7666H67.4062V42.0552H69.6723V36.7666Z" fill="url(#paint1_linear_858_6462)"/>
<path d="M2.56193 24.2715H1.25586V27.3184H2.56193V24.2715Z" fill="url(#paint2_linear_858_6462)"/>
<path d="M15.5561 54.9336H14.25V57.9805H15.5561V54.9336Z" fill="url(#paint3_linear_858_6462)"/>
<path d="M71.4604 18.6924H70.1543V21.7393H71.4604V18.6924Z" fill="url(#paint4_linear_858_6462)"/>
<path d="M84.6576 37.3232H83.3516V40.3702H84.6576V37.3232Z" fill="url(#paint5_linear_858_6462)"/>
<path d="M81.5482 58.5488H80.2422V61.5957H81.5482V58.5488Z" fill="url(#paint6_linear_858_6462)"/>
<path d="M38.5485 132.426V135.706C34.599 135.609 30.8251 135.454 27.293 135.25V132.275H29.7155V127.818H31.3764V122.454H33.4164V128.875H35.5763V132.426H38.5485Z" fill="url(#paint7_linear_858_6462)"/>
<path d="M64.083 132.729V135.524C59.1996 135.72 53.9649 135.826 48.5215 135.826V131.972H50.2606V128.046H52.151V126.458H53.4362V124.948H50.9771V120.868H52.7527V122.454H54.1127V117.846H56.2275V125.552H58.4118V127.366H59.9213V129.934H57.8901V131.294H62.5752V132.729H64.083Z" fill="url(#paint8_linear_858_6462)"/>
<path d="M73.6785 123.135V134.995C71.842 135.128 69.9238 135.246 67.9395 135.343V132.196H69.7516V127.63H71.7168V123.135H73.6785Z" fill="url(#paint9_linear_858_6462)"/>
<path d="M23.0284 131.458V134.973C22.2574 134.917 21.5038 134.859 20.7676 134.799V131.46L23.0284 131.458Z" fill="url(#paint10_linear_858_6462)"/>
<path d="M48.9731 117.329H46.707V122.618H48.9731V117.329Z" fill="url(#paint11_linear_858_6462)"/>
<path d="M68.5395 119.571H66.2734V124.86H68.5395V119.571Z" fill="url(#paint12_linear_858_6462)"/>
<path d="M83.1625 116.322H80.8965V121.611H83.1625V116.322Z" fill="url(#paint13_linear_858_6462)"/>
<path d="M24.7582 1.2959H22.4922V6.58453H24.7582V1.2959Z" fill="url(#paint14_linear_858_6462)"/>
<path d="M39.8793 9.70215H37.6133V14.9908H39.8793V9.70215Z" fill="url(#paint15_linear_858_6462)"/>
<path d="M85.1391 7.05859H82.873V12.3472H85.1391V7.05859Z" fill="url(#paint16_linear_858_6462)"/>
<path d="M9.52647 129.555V133.508C8.72648 133.379 7.97286 133.247 7.26562 133.113V129.555H9.52647Z" fill="url(#paint17_linear_858_6462)"/>
<path d="M23.6269 124.363H21.8965V128.4H23.6269V124.363Z" fill="url(#paint18_linear_858_6462)"/>
<path d="M57.9428 0.892578H56.6367V3.9395H57.9428V0.892578Z" fill="url(#paint19_linear_858_6462)"/>
<path d="M62.0424 122.214H60.7363V125.261H62.0424V122.214Z" fill="url(#paint20_linear_858_6462)"/>
<path d="M17.1684 110.216H14.9023V115.504H17.1684V110.216Z" fill="#6FC3A0"/>
<path d="M89.1293 92.9922H86.8633V98.2808H89.1293V92.9922Z" fill="#6FC3A0"/>
<path d="M6.44184 42.5283H4.17578V47.817H6.44184V42.5283Z" fill="#6FC3A0"/>
<path d="M6.44184 116.334H4.17578V121.623H6.44184V116.334Z" fill="#6FC3A0"/>
<path d="M29.4643 116.928H28.1582V119.975H29.4643V116.928Z" fill="#6FC3A0"/>
<path d="M53.6576 111.802H52.3516V114.849H53.6576V111.802Z" fill="#6FC3A0"/>
<path d="M85.31 100.603H84.0039V103.649H85.31V100.603Z" fill="#6FC3A0"/>
<path d="M29.3694 45.3457C29.3694 45.3457 27.865 45.2675 28.7885 48.7857C29.712 52.3039 29.3485 52.7543 25.2807 56.4951C21.2129 60.236 14.9574 62.8655 15.9904 70.5819C17.0234 78.2983 64.4611 95.3712 73.3688 88.0061C82.2765 80.6409 83.1895 74.3888 81.5426 68.2237C79.8957 62.0586 70.1584 60.8377 69.2523 54.5352C68.3463 48.2326 65.2211 49.9178 63.1568 48.7961C61.0924 47.6744 61.7498 46.8622 61.3603 44.4588C60.9707 42.0553 56.536 32.0485 54.8282 31.0676C53.1204 30.0868 36.804 29.2016 34.4806 34.245C32.1571 39.2884 29.3694 45.3457 29.3694 45.3457Z" fill="url(#paint21_linear_858_6462)"/>
<path d="M57.8759 50.8278C57.8638 53.0886 57.7925 54.7408 57.702 55.0312C57.3542 56.1077 55.662 57.6399 50.7334 59.3372C50.5925 59.3859 50.4447 59.4329 50.2934 59.4798C45.1596 61.0537 34.424 61.3372 34.6988 59.9598C34.7394 59.5181 34.7458 59.0739 34.718 58.6311C34.6797 57.2677 34.544 55.0468 34.3701 52.5686C34.2693 51.1147 34.1545 49.5704 34.0397 48.0608C33.6658 43.127 33.2762 38.5444 33.2762 38.5444C33.2762 38.5444 32.7058 37.4575 35.6814 35.5497C36.8988 34.7706 38.7023 33.8558 41.3787 32.821C49.163 29.8124 52.6395 31.3132 54.8307 32.5358C55.2377 32.7636 55.6012 32.9828 55.9403 33.1602C56.942 33.6819 57.4655 38.2331 57.7038 43.047C57.8429 45.7826 57.8898 48.6052 57.8759 50.8278Z" fill="#F7AC86"/>
<path d="M34.0436 48.06C33.6697 43.1261 33.2801 38.5436 33.2801 38.5436C33.2801 38.5436 32.7097 37.4566 35.6853 35.5488C35.6853 35.5488 36.2558 45.78 34.0436 48.06Z" fill="url(#paint22_linear_858_6462)"/>
<path d="M57.7148 43.0463C55.2331 41.2707 54.8853 34.8603 54.8418 32.5352C55.2487 32.763 55.6122 32.9821 55.9513 33.1595C56.9444 33.6934 57.4678 38.2325 57.7148 43.0463Z" fill="url(#paint23_linear_858_6462)"/>
<path d="M33.4654 40.7944C33.4654 40.7944 31.069 40.224 29.7855 42.3004C28.502 44.3769 29.382 48.7091 34.0985 48.7908L33.4811 40.9822L33.4654 40.7944Z" fill="#F7AC86"/>
<path d="M33.6452 43.0466C33.3676 42.8366 33.0467 42.6913 32.7058 42.6212C32.3649 42.551 32.0127 42.558 31.6748 42.6414C30.4661 42.9057 30.6174 44.4535 30.6174 44.4535C30.6174 44.4535 31.313 42.864 33.7478 44.2622L33.6452 43.0466Z" fill="#D27358"/>
<path d="M57.2891 37.7908C57.2891 37.7908 58.1586 36.6152 60.0716 37.0691C61.9847 37.523 62.6681 42.9264 57.7725 44.7577L57.2891 37.7908Z" fill="#F7AC86"/>
<path d="M57.4434 39.9868C57.4434 39.9868 58.0938 38.7399 59.2851 38.8529C60.4764 38.966 60.219 40.1573 60.219 40.1573C60.219 40.1573 59.6468 39.3921 58.8433 40.1573C58.0399 40.9225 57.5842 41.4599 57.5842 41.4599L57.4434 39.9868Z" fill="#D27358"/>
<path d="M37.8684 39.3541C37.8684 39.3541 38.4353 37.4411 40.0579 36.9646C41.6805 36.4881 42.1362 37.5107 41.5692 37.7907C41.0023 38.0707 39.4544 38.9767 38.7745 39.5802C38.0945 40.1837 37.5971 39.9941 37.8684 39.3541Z" fill="url(#paint24_linear_858_6462)"/>
<path d="M53.9201 36.838C53.9201 36.838 52.9392 35.5198 51.5027 35.5493C50.0662 35.5789 50.2575 36.7406 50.7479 36.838C51.2384 36.9354 51.9566 36.6919 52.7879 36.965C53.6192 37.238 53.9966 37.3076 53.9201 36.838Z" fill="url(#paint25_linear_858_6462)"/>
<path d="M41.2979 45.1723C41.5649 45.1723 41.7814 44.5922 41.7814 43.8767C41.7814 43.1611 41.5649 42.5811 41.2979 42.5811C41.0309 42.5811 40.8145 43.1611 40.8145 43.8767C40.8145 44.5922 41.0309 45.1723 41.2979 45.1723Z" fill="#08080E"/>
<path d="M46.4121 38.8467C46.4121 38.8467 49.7738 47.7022 49.0573 49.0239C48.3408 50.3457 47.666 49.7039 47.2817 48.3074C46.8973 46.9109 46.4121 38.8467 46.4121 38.8467Z" fill="#D27358"/>
<path d="M40.8551 47.2861H38.0499C37.634 47.2861 37.2969 47.6229 37.2969 48.0383C37.2969 48.4537 37.634 48.7905 38.0499 48.7905H40.8551C41.271 48.7905 41.6081 48.4537 41.6081 48.0383C41.6081 47.6229 41.271 47.2861 40.8551 47.2861Z" fill="#EC7571"/>
<path d="M54.8053 45.9289L52.0286 46.3276C51.6169 46.3867 51.3311 46.7679 51.3901 47.1791C51.4491 47.5903 51.8307 47.8757 52.2424 47.8166L55.0191 47.418C55.4308 47.3589 55.7166 46.9776 55.6576 46.5664C55.5986 46.1552 55.217 45.8698 54.8053 45.9289Z" fill="#EC7571"/>
<path d="M60.0151 33.5003C60.0151 33.5003 50.6952 28.5055 41.7319 31.0655C32.7685 33.6255 31.8415 40.8045 31.8415 40.8045C31.8415 40.8045 26.9912 38.455 25.6312 33.7959C24.2712 29.1368 26.9373 23.4152 32.1772 22.3387C34.5024 21.8604 36.4432 21.9526 38.1789 21.9387C39.791 21.9265 41.2258 21.8239 42.631 21.0935C43.1618 20.8155 43.656 20.4725 44.1023 20.0726C47.5022 17.0692 49.6848 15.5961 53.523 15.7092C57.3612 15.8222 67.0881 20.3578 60.0151 33.5003Z" fill="#6FC3A0"/>
<path d="M73.3666 98.8091C73.3666 99.9447 73.3353 102.6 73.2953 105.505C73.2275 110.51 73.1353 116.259 73.1353 116.259L70.7232 117.091L70.6484 113.612L68.3058 113.99V110.593L65.2832 110.67V115.887H62.4137V113.313H60.0781V117.393H57.2833V108.404H53.6573V105.693H50.4834V109.084H47.3113V114.301H44.8191V112.562H42.6279V122.986H39.6053V121.247H37.2975V123.741H35.0732V116.336H32.8019V111.199H30.9932V107.421H32.3532V102.964H29.9359V100.997H27.8211V113.31H24.9498V105.91H23.0612V102.313L17.9238 65.58L18.2003 65.446C19.5795 64.7887 25.7603 61.8722 28.7846 61.0183C32.2019 60.0548 60.6102 56.1401 66.1371 59.3296C69.751 61.4165 71.7353 76.3624 72.6727 87.3066C73.1684 93.0805 73.3666 97.7396 73.3666 98.8091Z" fill="#6FC3A0"/>
<path d="M30.2584 60.3016C30.2584 60.3016 29.0863 60.3016 28.8028 61.4337C28.5193 62.5659 31.6288 64.9972 39.9087 65.5189C48.1886 66.0406 56.552 63.5363 60.0146 61.4389C63.4771 59.3416 63.3641 57.4164 62.9711 56.8494C62.578 56.2825 61.1015 56.5016 61.1015 56.5016C61.1015 56.5016 42.2374 63.8685 37.6409 63.0181C33.0445 62.1676 30.2584 60.3016 30.2584 60.3016Z" fill="white"/>
<path d="M57.8749 50.8271C57.8628 53.088 57.7915 54.7401 57.701 55.0306C57.3532 56.1071 55.661 57.6392 50.7324 59.3366C50.5915 59.3853 50.4437 59.4323 50.2924 59.4792C46.1359 59.8427 41.8108 60.1488 39.8004 60.0549C38.023 59.9521 36.2889 59.4662 34.717 58.6305C34.6787 57.2671 34.5431 55.0462 34.3691 52.568C34.3691 52.568 35.4283 57.4184 40.3586 57.9818C45.289 58.5453 53.9237 57.0706 53.9237 57.0706C53.9237 57.0706 56.6228 54.3732 57.8749 50.8271Z" fill="#EC7571"/>
<path d="M59.7172 35.8325C59.5642 36.5125 59.4077 36.9699 59.4077 36.9699C57.7538 36.9281 57.2894 37.7907 57.2894 37.7907L57.1155 36.5733C56.9416 35.356 52.6304 32.0708 44.1331 33.5803C35.6358 35.0899 33.4254 40.382 33.4254 40.382L33.4602 40.8011C32.9762 40.7054 32.4781 40.7054 31.9941 40.8011C31.9384 40.8098 31.8984 40.8185 31.8758 40.8237H31.8567L31.8376 40.8115C31.7489 40.7507 31.3593 40.4289 30.7645 39.1733C30.0845 37.7385 29.7072 34.6777 32.1732 32.109C34.6393 29.5404 42.587 26.8587 48.933 26.7839C55.279 26.7091 58.0355 29.163 59.4042 31.0673C60.3137 32.3195 60.0198 34.5021 59.7172 35.8325Z" fill="#FABC68"/>
<path d="M59.7177 35.8329C59.1611 35.7442 58.7611 35.5721 58.8481 35.2573C59.0864 34.3512 59.0637 33.1599 57.2933 33.1599C55.5229 33.1599 56.4012 32.1408 56.0029 30.5513C55.6047 28.9617 53.9073 29.4748 52.6603 30.3773C51.4134 31.2799 49.8778 30.6034 48.4674 29.0174C47.0569 27.4313 44.3248 28.4017 43.6413 30.2156C42.9579 32.0295 41.4396 31.9721 38.7718 31.5756C36.104 31.1791 35.2032 32.3686 34.4901 34.2382C33.7771 36.1077 32.9962 35.4329 32.151 36.3651C31.3058 37.2973 31.405 37.8068 32.1719 39.2798C32.758 40.4085 32.2606 40.7094 31.998 40.7894C31.9593 40.8002 31.9197 40.8077 31.8797 40.812H31.8606L31.8415 40.7998C31.7528 40.739 31.3632 40.4172 30.7684 39.1616C30.0885 37.7268 29.7111 34.666 32.1771 32.0973C34.6432 29.5287 42.5909 26.847 48.9369 26.7722C55.2829 26.6974 58.0394 29.1513 59.4081 31.0556C60.3142 32.3199 60.0203 34.5025 59.7177 35.8329Z" fill="#CEEAE9"/>
<path opacity="0.4" d="M36.8453 88.6983C36.5636 89.7174 33.2176 96.0564 29.9359 101.524V101.002H27.8211V104.924C26.7255 106.615 25.722 108.027 24.9498 108.891V105.91H23.0612V102.314L17.9238 65.5803L18.2003 65.4464C21.6194 65.1525 25.6124 66.069 27.0472 71.335C29.7411 81.2253 33.1602 78.5749 34.0975 79.8566C35.0349 81.1384 37.2958 87.067 36.8453 88.6983Z" fill="#364E4C"/>
<path opacity="0.4" d="M42.6304 21.0938C42.6304 21.0938 38.3782 24.7163 34.8652 25.7893C34.8652 25.7893 36.98 24.3146 38.1782 21.9337C39.7904 21.9268 41.2252 21.8242 42.6304 21.0938Z" fill="#364E4C"/>
<path d="M32.4872 55.7668C32.4872 55.7668 36.5097 58.1424 46.8783 56.5007C57.2469 54.859 57.1947 52.5981 59.1721 52.5686C61.1494 52.539 62.0085 55.7111 61.5251 57.5198C61.0416 59.3285 58.9164 61.5424 51.3669 63.2989C43.8175 65.0554 36.8993 64.4884 34.0993 63.2989C31.2994 62.1093 30.1846 62.3893 30.2594 60.3024C30.3342 58.2155 31.1272 54.6903 32.4872 55.7668Z" fill="#CEEAE9"/>
<path d="M36.2819 61.4329C37.033 61.4329 37.6418 60.824 37.6418 60.0729C37.6418 59.3218 37.033 58.7129 36.2819 58.7129C35.5308 58.7129 34.9219 59.3218 34.9219 60.0729C34.9219 60.824 35.5308 61.4329 36.2819 61.4329Z" fill="#FABC68"/>
<path d="M34.3013 91.406C32.2613 94.3521 24.3257 105.171 15.0372 104.608C5.74858 104.044 8.40768 83.7001 10.9016 77.5819C11.7937 75.3906 12.7085 73.2219 13.6441 71.3454C15.3224 67.9837 17.0702 65.5542 18.8876 65.5838C18.8876 65.5838 23.0805 63.9873 24.3831 71.2393C25.6857 78.4914 24.3831 82.7401 24.3831 82.7401C24.3831 82.7401 30.7291 80.8705 31.9761 80.7001C33.223 80.5297 34.5256 82.3436 34.9795 83.6461C35.4334 84.9487 36.3412 88.46 34.3013 91.406Z" fill="#6FC3A0"/>
<path d="M24.3842 82.7359C24.3842 82.7359 24.9512 81.7724 22.5147 81.715C20.0782 81.6577 14.0157 83.6994 10.2766 86.475C6.53749 89.2506 7.71486 92.301 7.71486 92.301C7.71486 92.301 14.1913 82.7133 24.3842 82.7359Z" fill="#CEEAE9"/>
<path d="M24.3844 82.7369C24.3844 82.7369 23.8749 81.49 18.8315 83.2465C13.788 85.003 8.97245 89.309 7.95333 91.6324C6.93421 93.9559 8.39333 95.0846 8.39333 95.0846C8.39333 95.0846 12.4333 88.6829 14.4124 86.869C16.3915 85.0551 21.2679 82.7369 24.3844 82.7369Z" fill="white"/>
<path d="M47.8398 65.1719C47.8398 65.1719 52.3337 87.4325 50.4833 109.083" stroke="#364E4C" stroke-width="0.5" stroke-miterlimit="10"/>
<path opacity="0.4" d="M73.3689 98.8091C73.3689 99.9447 73.3376 102.6 73.2976 105.505C65.3847 101.788 59.0195 88.6979 59.0195 88.6979C62.3343 78.5763 70.2663 85.0458 72.6681 87.3066C73.1707 93.0804 73.3689 97.7395 73.3689 98.8091Z" fill="#364E4C"/>
<path d="M24.3835 82.7364C24.3835 82.7364 11.7507 85.345 9.05851 97.7779C9.05851 97.7779 6.93332 95.8805 10.2759 90.6684C13.6185 85.4563 20.8705 82.2824 24.3835 82.7364Z" fill="#CEEAE9"/>
<path d="M19.4553 73.3887C19.2814 74.8618 18.7753 77.8635 17.7562 78.2043C16.9614 78.4687 12.6988 78.2861 10.9023 77.5782C11.7945 75.387 12.7093 73.2183 13.6449 71.3418C13.6449 71.3418 16.1631 71.7522 17.6362 71.7522C19.1092 71.7522 19.6292 71.9157 19.4553 73.3887Z" fill="#CEEAE9"/>
<path d="M15.9901 75.9695C16.4464 75.9695 16.8162 75.5997 16.8162 75.1435C16.8162 74.6872 16.4464 74.3174 15.9901 74.3174C15.5339 74.3174 15.1641 74.6872 15.1641 75.1435C15.1641 75.5997 15.5339 75.9695 15.9901 75.9695Z" fill="white"/>
<path d="M79.4189 91.2585C76.925 102.439 73.1477 102.817 67.1791 96.4759C61.2104 90.1351 64.4556 76.7596 63.9321 71.344C63.4087 65.9284 65.6713 59.3076 65.6713 59.3076C68.033 59.3685 70.2834 60.8537 72.2694 63.2154C73.5315 64.7575 74.6128 66.4392 75.492 68.2275C79.0207 75.2066 80.8589 84.7943 79.4189 91.2585Z" fill="#6FC3A0"/>
<path opacity="0.4" d="M64.4567 66.3662C64.4567 66.3662 68.994 69.867 70.9575 72.667C72.921 75.467 73.3679 80.6773 73.3679 80.6773C73.3679 80.6773 65.8897 74.7852 62.4898 73.9539C59.0898 73.1226 64.4567 66.3662 64.4567 66.3662Z" fill="#364E4C"/>
<path d="M64.4561 66.3661V93.844C64.4561 94.4289 64.2237 94.9898 63.8102 95.4033C63.3966 95.8169 62.8357 96.0492 62.2509 96.0492H40.1503C39.5653 96.0492 39.0042 95.8169 38.5904 95.4034C38.1765 94.9899 37.9438 94.429 37.9434 93.844V66.3661C37.9434 65.7808 38.1759 65.2195 38.5898 64.8056C39.0036 64.3917 39.565 64.1592 40.1503 64.1592H62.2544C62.8388 64.1606 63.3988 64.3937 63.8115 64.8074C64.2243 65.2211 64.4561 65.7817 64.4561 66.3661Z" fill="#EC7571"/>
<path d="M73.3681 80.6774C73.3681 80.6774 72.4238 79.5435 74.3507 79.9505C76.2776 80.3574 78.4863 82.0565 80.2428 86.42C81.9993 90.7834 79.6289 91.9712 79.6289 91.9712C79.6289 91.9712 78.455 82.9817 73.3681 80.6774Z" fill="#CEEAE9"/>
<path opacity="0.4" d="M64.4561 77.1035V93.8477C64.4561 94.4325 64.2237 94.9934 63.8102 95.407C63.3966 95.8205 62.8357 96.0528 62.2509 96.0528H40.1503C39.5653 96.0529 39.0042 95.8206 38.5904 95.4071C38.1765 94.9936 37.9438 94.4327 37.9434 93.8477V89.6738C43.1903 91.4129 49.4058 91.9938 52.8545 87.0199C56.5796 81.6339 60.6996 78.6113 64.4561 77.1035Z" fill="#364E4C"/>
<path d="M51.1971 75.9693C52.1095 75.9693 52.8492 75.2297 52.8492 74.3172C52.8492 73.4047 52.1095 72.665 51.1971 72.665C50.2846 72.665 49.5449 73.4047 49.5449 74.3172C49.5449 75.2297 50.2846 75.9693 51.1971 75.9693Z" fill="#FABC68"/>
<path d="M75.49 68.2182C74.3144 69.4251 72.344 70.4494 71.7127 70.5555C70.8066 70.7068 70.2396 70.366 69.5214 68.3642C68.8031 66.3625 68.1614 65.5312 69.7857 64.7382C70.6534 64.296 71.4834 63.7836 72.2674 63.2061C73.5295 64.7482 74.6108 66.4299 75.49 68.2182Z" fill="#CEEAE9"/>
<path d="M71.3735 67.6552C71.7923 67.6552 72.1317 67.3157 72.1317 66.8969C72.1317 66.4782 71.7923 66.1387 71.3735 66.1387C70.9547 66.1387 70.6152 66.4782 70.6152 66.8969C70.6152 67.3157 70.9547 67.6552 71.3735 67.6552Z" fill="#EC7571"/>
<path d="M73.3675 80.6772C73.3675 80.6772 72.877 79.6111 75.1988 80.6633C77.5205 81.7154 80.2422 87.3258 80.2422 90.3292C80.2422 93.3327 78.8039 94.2909 78.8039 94.2909C78.8039 94.2909 78.2596 87.1606 76.5031 84.4354C74.7466 81.7102 73.3675 80.6772 73.3675 80.6772Z" fill="white"/>
<path d="M73.3672 80.6773C73.3672 80.6773 80.061 89.7294 77.4315 97.3936C77.4315 97.3936 79.3358 96.1641 78.8819 90.5554C78.428 84.9468 74.828 80.3747 73.3672 80.6773Z" fill="#CEEAE9"/>
<path d="M63.1379 74.3691C63.1379 74.3691 67.7848 75.1326 67.9256 79.0143C68.0665 82.896 65.3483 83.3203 64.3239 82.4699C63.2996 81.6195 62.7379 81.4508 62.0857 81.3656C61.4335 81.2803 60.924 80.9117 61.6892 80.3743C62.4544 79.8369 62.9935 79.9725 62.9935 79.9725C62.9935 79.9725 61.8022 79.4299 60.8405 79.9725C59.8788 80.5151 59.9518 79.0595 60.717 78.5812C61.4822 78.103 63.1918 78.2943 63.1918 78.2943C63.1918 78.2943 63.1379 77.8856 61.6527 77.8091C60.1153 77.7308 59.3831 77.9482 59.5831 77.296C59.7831 76.6439 60.3014 75.9291 61.8022 76.0439L63.3048 76.1569C63.3048 76.1569 62.0874 75.4195 60.9535 75.4769C59.8196 75.5343 60.0283 74.5187 61.1275 74.3204C61.1361 74.3169 62.3692 74.1761 63.1379 74.3691Z" fill="#F7AC86"/>
<path d="M44.1869 128.409H42.8809V131.456H44.1869V128.409Z" fill="#6FC3A0"/>
<path d="M11.4062 102.91C11.4062 102.91 21.4931 104.486 35.5799 87.0078" stroke="#364E4C" stroke-width="0.5" stroke-miterlimit="10"/>
<path d="M66.2031 82.6924C66.2031 82.6924 68.9127 102.252 76.7908 98.5183" stroke="#364E4C" stroke-width="0.5" stroke-miterlimit="10"/>
<path d="M41.2994 43.2639C41.4195 43.2639 41.5168 43.1666 41.5168 43.0465C41.5168 42.9264 41.4195 42.8291 41.2994 42.8291C41.1794 42.8291 41.082 42.9264 41.082 43.0465C41.082 43.1666 41.1794 43.2639 41.2994 43.2639Z" fill="white"/>
<path d="M52.1202 43.5991C52.3872 43.5991 52.6037 43.019 52.6037 42.3035C52.6037 41.5879 52.3872 41.0078 52.1202 41.0078C51.8532 41.0078 51.6367 41.5879 51.6367 42.3035C51.6367 43.019 51.8532 43.5991 52.1202 43.5991Z" fill="#08080E"/>
<path d="M52.1197 41.6916C52.2398 41.6916 52.3371 41.5943 52.3371 41.4742C52.3371 41.3542 52.2398 41.2568 52.1197 41.2568C51.9997 41.2568 51.9023 41.3542 51.9023 41.4742C51.9023 41.5943 51.9997 41.6916 52.1197 41.6916Z" fill="white"/>
<path d="M37.7344 78.9958C37.7344 78.9958 33.0875 79.7593 32.9467 83.641C32.8058 87.5227 35.524 87.947 36.5432 87.0966C37.5623 86.2462 38.131 86.0775 38.7814 85.9922C39.4318 85.907 39.9431 85.5383 39.1779 85.001C38.4127 84.4636 37.8753 84.5992 37.8753 84.5992C37.8753 84.5992 39.0649 84.0566 40.0283 84.5992C40.9918 85.1418 40.9153 83.6862 40.1518 83.2079C39.3883 82.7297 37.6771 82.9105 37.6771 82.9105C37.6771 82.9105 37.731 82.5018 39.2144 82.4253C40.7518 82.3471 41.484 82.5645 41.2857 81.9123C41.0874 81.2601 40.5675 80.5471 39.0649 80.6601L37.564 80.7732C37.564 80.7732 38.7814 80.0358 39.9153 80.0932C41.0492 80.1506 40.8405 79.1349 39.7414 78.9367C39.7362 78.9436 38.5031 78.8028 37.7344 78.9958Z" fill="#F7AC86"/>
<path d="M46.597 53.3456C46.5811 53.5095 46.5123 53.6636 46.4009 53.7848C46.2894 53.9059 46.1416 53.9874 45.9796 54.0169C45.4231 54.1682 44.5344 54.0326 43.4666 53.8761C41.9153 53.6482 40.5101 53.4569 40.3449 52.7091C40.3233 52.6179 40.3203 52.5233 40.3362 52.4309C40.4788 51.4448 41.9988 50.8518 43.7275 51.1039C45.4562 51.3561 46.7414 52.3578 46.597 53.3456Z" fill="url(#paint26_linear_858_6462)"/>
<path d="M45.9804 54.0127C45.4239 54.164 44.5352 54.0283 43.4674 53.8718C41.9161 53.644 40.5109 53.4527 40.3457 52.7049C40.9718 52.2718 42.0153 52.0736 43.1474 52.2405C44.5996 52.4527 45.7387 53.1953 45.9804 54.0127Z" fill="#EC7571"/>
<defs>
<linearGradient id="paint0_linear_858_6462" x1="13.7706" y1="25.981" x2="13.7706" y2="19.795" gradientUnits="userSpaceOnUse">
<stop stop-color="#44685E"/>
<stop offset="0.87" stop-color="#1B232A"/>
</linearGradient>
<linearGradient id="paint1_linear_858_6462" x1="1095.11" y1="1485.8" x2="1138.73" y2="1277.96" gradientUnits="userSpaceOnUse">
<stop stop-color="#44685E"/>
<stop offset="0.87" stop-color="#1B232A"/>
</linearGradient>
<linearGradient id="paint2_linear_858_6462" x1="95.4366" y1="597.366" x2="95.4366" y2="506.751" gradientUnits="userSpaceOnUse">
<stop stop-color="#44685E"/>
<stop offset="0.87" stop-color="#1B232A"/>
</linearGradient>
<linearGradient id="paint3_linear_858_6462" x1="206.007" y1="1163.74" x2="206.007" y2="1084.12" gradientUnits="userSpaceOnUse">
<stop stop-color="#44685E"/>
<stop offset="0.87" stop-color="#1B232A"/>
</linearGradient>
<linearGradient id="paint4_linear_858_6462" x1="681.749" y1="513.877" x2="681.749" y2="426.431" gradientUnits="userSpaceOnUse">
<stop stop-color="#44685E"/>
<stop offset="0.87" stop-color="#1B232A"/>
</linearGradient>
<linearGradient id="paint5_linear_858_6462" x1="794.064" y1="864.776" x2="794.064" y2="745.276" gradientUnits="userSpaceOnUse">
<stop stop-color="#44685E"/>
<stop offset="0.87" stop-color="#1B232A"/>
</linearGradient>
<linearGradient id="paint6_linear_858_6462" x1="767.609" y1="1237.31" x2="767.609" y2="1131.61" gradientUnits="userSpaceOnUse">
<stop stop-color="#44685E"/>
<stop offset="0.87" stop-color="#1B232A"/>
</linearGradient>
<linearGradient id="paint7_linear_858_6462" x1="32.9207" y1="135.706" x2="32.9207" y2="122.454" gradientUnits="userSpaceOnUse">
<stop stop-color="white"/>
<stop offset="0.38" stop-color="#9AD2B6"/>
<stop offset="0.99" stop-color="#5F9E85"/>
</linearGradient>
<linearGradient id="paint8_linear_858_6462" x1="6037.69" y1="14669" x2="6037.69" y2="12810" gradientUnits="userSpaceOnUse">
<stop stop-color="white"/>
<stop offset="0.38" stop-color="#9AD2B6"/>
<stop offset="0.99" stop-color="#5F9E85"/>
</linearGradient>
<linearGradient id="paint9_linear_858_6462" x1="2755.37" y1="9969.57" x2="2755.37" y2="9112.16" gradientUnits="userSpaceOnUse">
<stop stop-color="white"/>
<stop offset="0.38" stop-color="#9AD2B6"/>
<stop offset="0.99" stop-color="#5F9E85"/>
</linearGradient>
<linearGradient id="paint10_linear_858_6462" x1="443.613" y1="2958.57" x2="443.613" y2="2887.53" gradientUnits="userSpaceOnUse">
<stop stop-color="white"/>
<stop offset="0.38" stop-color="#9AD2B6"/>
<stop offset="0.99" stop-color="#5F9E85"/>
</linearGradient>
<linearGradient id="paint11_linear_858_6462" x1="808.601" y1="3995.59" x2="808.601" y2="3834.76" gradientUnits="userSpaceOnUse">
<stop stop-color="white"/>
<stop offset="0.38" stop-color="#9AD2B6"/>
<stop offset="0.99" stop-color="#5F9E85"/>
</linearGradient>
<linearGradient id="paint12_linear_858_6462" x1="1083.1" y1="4066" x2="1083.1" y2="3905.18" gradientUnits="userSpaceOnUse">
<stop stop-color="white"/>
<stop offset="0.38" stop-color="#9AD2B6"/>
<stop offset="0.99" stop-color="#5F9E85"/>
</linearGradient>
<linearGradient id="paint13_linear_858_6462" x1="1288.26" y1="3963.96" x2="1288.26" y2="3803.14" gradientUnits="userSpaceOnUse">
<stop stop-color="white"/>
<stop offset="0.38" stop-color="#9AD2B6"/>
<stop offset="0.99" stop-color="#5F9E85"/>
</linearGradient>
<linearGradient id="paint14_linear_858_6462" x1="468.838" y1="190.153" x2="468.838" y2="350.98" gradientUnits="userSpaceOnUse">
<stop stop-color="white"/>
<stop offset="0.38" stop-color="#9AD2B6"/>
<stop offset="0.99" stop-color="#5F9E85"/>
</linearGradient>
<linearGradient id="paint15_linear_858_6462" x1="681.015" y1="454.211" x2="681.015" y2="615.039" gradientUnits="userSpaceOnUse">
<stop stop-color="white"/>
<stop offset="0.38" stop-color="#9AD2B6"/>
<stop offset="0.99" stop-color="#5F9E85"/>
</linearGradient>
<linearGradient id="paint16_linear_858_6462" x1="1315.97" y1="371.181" x2="1315.97" y2="531.955" gradientUnits="userSpaceOnUse">
<stop stop-color="white"/>
<stop offset="0.38" stop-color="#9AD2B6"/>
<stop offset="0.99" stop-color="#5F9E85"/>
</linearGradient>
<linearGradient id="paint17_linear_858_6462" x1="254.579" y1="3275.9" x2="254.579" y2="3186.05" gradientUnits="userSpaceOnUse">
<stop stop-color="white"/>
<stop offset="0.38" stop-color="#9AD2B6"/>
<stop offset="0.99" stop-color="#5F9E85"/>
</linearGradient>
<linearGradient id="paint18_linear_858_6462" x1="354.136" y1="3218.6" x2="354.136" y2="3124.92" gradientUnits="userSpaceOnUse">
<stop stop-color="white"/>
<stop offset="0.38" stop-color="#9AD2B6"/>
<stop offset="0.99" stop-color="#5F9E85"/>
</linearGradient>
<linearGradient id="paint19_linear_858_6462" x1="566.721" y1="102.629" x2="566.721" y2="156.011" gradientUnits="userSpaceOnUse">
<stop stop-color="white"/>
<stop offset="0.38" stop-color="#9AD2B6"/>
<stop offset="0.99" stop-color="#5F9E85"/>
</linearGradient>
<linearGradient id="paint20_linear_858_6462" x1="601.62" y1="2402.9" x2="601.62" y2="2349.51" gradientUnits="userSpaceOnUse">
<stop stop-color="white"/>
<stop offset="0.38" stop-color="#9AD2B6"/>
<stop offset="0.99" stop-color="#5F9E85"/>
</linearGradient>
<linearGradient id="paint21_linear_858_6462" x1="22778.4" y1="39223" x2="22778.4" y2="5025.33" gradientUnits="userSpaceOnUse">
<stop stop-color="#44685E"/>
<stop offset="0.87" stop-color="#1B232A"/>
</linearGradient>
<linearGradient id="paint22_linear_858_6462" x1="685.788" y1="4118.56" x2="685.788" y2="2897.72" gradientUnits="userSpaceOnUse">
<stop stop-color="#44685E"/>
<stop offset="0.87" stop-color="#1B232A"/>
</linearGradient>
<linearGradient id="paint23_linear_858_6462" x1="1160.06" y1="3462.86" x2="1160.06" y2="2437.18" gradientUnits="userSpaceOnUse">
<stop stop-color="#44685E"/>
<stop offset="0.87" stop-color="#1B232A"/>
</linearGradient>
<linearGradient id="paint24_linear_858_6462" x1="1154.1" y1="810.408" x2="1246.5" y2="810.408" gradientUnits="userSpaceOnUse">
<stop stop-color="#44685E"/>
<stop offset="0.87" stop-color="#1B232A"/>
</linearGradient>
<linearGradient id="paint25_linear_858_6462" x1="1293.53" y1="422.811" x2="1365.7" y2="422.811" gradientUnits="userSpaceOnUse">
<stop stop-color="#44685E"/>
<stop offset="0.87" stop-color="#1B232A"/>
</linearGradient>
<linearGradient id="paint26_linear_858_6462" x1="2141.5" y1="1062.74" x2="1877.61" y2="989.096" gradientUnits="userSpaceOnUse">
<stop stop-color="#44685E"/>
<stop offset="0.87" stop-color="#1B232A"/>
</linearGradient>
</defs>
</svg>
