<svg width="56" height="56" viewBox="0 0 56 56" fill="none" xmlns="http://www.w3.org/2000/svg">
<g filter="url(#filter0_d_0_34)">
<path d="M39.0995 26.2342C38.6858 26.2342 38.3428 26.5773 38.3428 26.991C38.3428 29.9777 36.2642 32.48 33.4693 33.1359L33.7417 32.6818C33.9536 32.3186 33.8426 31.8544 33.4793 31.6425C33.1262 31.4306 32.652 31.5416 32.4401 31.9049L31.3806 33.6706C31.2393 33.9027 31.2393 34.1953 31.3705 34.4274C31.5017 34.6695 31.7539 34.8108 32.0264 34.8108C36.3348 34.8108 39.8462 31.2995 39.8462 26.991C39.8563 26.5773 39.5132 26.2342 39.0995 26.2342Z" fill="#777777"/>
<path d="M23.964 11.0991C19.6555 11.0991 16.1441 14.6105 16.1441 18.9189C16.1441 19.3326 16.4872 19.6757 16.9009 19.6757C17.3146 19.6757 17.6577 19.3326 17.6577 18.9189C17.6577 15.9323 19.7362 13.4299 22.5312 12.7741L22.2587 13.2281C22.0468 13.5914 22.1578 14.0555 22.5211 14.2674C22.8742 14.4793 23.3485 14.3683 23.5604 14.005L24.6198 12.2393C24.751 12.0072 24.7611 11.7247 24.6198 11.4825C24.4886 11.2505 24.2364 11.0991 23.964 11.0991Z" fill="#5ED5A8"/>
<path d="M37.5858 19.6255C37.5858 22.7332 35.3256 25.2961 32.3692 25.7704C32.3692 25.7603 32.3692 25.7603 32.3692 25.7502C32.0766 21.9866 29.0294 18.9192 25.2154 18.6165C25.6896 15.6601 28.2525 13.3999 31.3602 13.3999C34.801 13.3999 37.5858 16.1848 37.5858 19.6255Z" fill="#777777"/>
<path d="M25.7894 25.2056C25.7894 25.0543 25.6179 24.8222 25.406 24.8222H23.3274V25.579H25.406C25.6179 25.5891 25.7894 25.4175 25.7894 25.2056Z" fill="#5ED5A8"/>
<path d="M25.8096 27.1023H25.406H23.3274V27.8591H25.8197C26.1426 27.8591 26.3645 27.6573 26.3645 27.4757C26.3645 27.294 26.1325 27.1023 25.8096 27.1023Z" fill="#5ED5A8"/>
<path d="M30.8555 25.8616C30.6234 22.8043 28.1816 20.3625 25.1243 20.1304C24.9629 20.1203 24.8115 20.1102 24.64 20.1102C21.1993 20.1102 18.4144 22.8951 18.4144 26.3459C18.4144 29.7866 21.1993 32.5715 24.64 32.5715C28.0807 32.5715 30.8757 29.7866 30.8757 26.3459C30.8757 26.1744 30.8656 26.023 30.8555 25.8616ZM25.8105 29.3729H25.1445V29.7563C25.1445 30.17 24.8014 30.5131 24.3877 30.5131C23.9741 30.5131 23.631 30.17 23.631 29.7563V29.3729H22.5715C22.1578 29.3729 21.8148 29.0299 21.8148 28.6162V26.3459V24.0756C21.8148 23.6619 22.1578 23.3189 22.5715 23.3189H23.631V22.9354C23.631 22.5218 23.9741 22.1787 24.3877 22.1787C24.8014 22.1787 25.1445 22.5218 25.1445 22.9354V23.3189H25.4068C26.4159 23.3189 27.3038 24.2068 27.3038 25.2158C27.3038 25.5084 27.2332 25.7809 27.1121 26.0331C27.5762 26.3762 27.8688 26.9008 27.8688 27.4861C27.8688 28.5254 26.9506 29.3729 25.8105 29.3729Z" fill="#5ED5A8"/>
</g>
<defs>
<filter id="filter0_d_0_34" x="0" y="0" width="55.9901" height="56" filterUnits="userSpaceOnUse" color-interpolation-filters="sRGB">
<feFlood flood-opacity="0" result="BackgroundImageFix"/>
<feColorMatrix in="SourceAlpha" type="matrix" values="0 0 0 0 0 0 0 0 0 0 0 0 0 0 0 0 0 0 127 0" result="hardAlpha"/>
<feOffset dy="5"/>
<feGaussianBlur stdDeviation="8"/>
<feComposite in2="hardAlpha" operator="out"/>
<feColorMatrix type="matrix" values="0 0 0 0 0.368627 0 0 0 0 0.835294 0 0 0 0 0.658824 0 0 0 0.25 0"/>
<feBlend mode="normal" in2="BackgroundImageFix" result="effect1_dropShadow_0_34"/>
<feBlend mode="normal" in="SourceGraphic" in2="effect1_dropShadow_0_34" result="shape"/>
</filter>
</defs>
</svg>
